<svg xmlns="http://www.w3.org/2000/svg" version="1.1" width="10" height="10"
    style="shape-rendering:geometricPrecision; text-rendering:geometricPrecision; image-rendering:optimizeQuality; fill-rule:evenodd; clip-rule:evenodd"
    xmlns:xlink="http://www.w3.org/1999/xlink">
    <g>
        <path style="opacity:1" fill="#80ba06"
            d="M -0.5,-0.5 C 0.5,-0.5 1.5,-0.5 2.5,-0.5C 2.5,-0.166667 2.5,0.166667 2.5,0.5C 1.50838,0.32842 0.841711,0.661754 0.5,1.5C 0.5,2.16667 0.5,2.83333 0.5,3.5C 0.166667,3.5 -0.166667,3.5 -0.5,3.5C -0.5,2.16667 -0.5,0.833333 -0.5,-0.5 Z" />
    </g>
    <g>
        <path style="opacity:1" fill="#82bc09"
            d="M 3.5,-0.5 C 5.5,-0.5 7.5,-0.5 9.5,-0.5C 9.5,-0.166667 9.5,0.166667 9.5,0.5C 9.16667,1.16667 8.83333,1.83333 8.5,2.5C 7.83333,2.5 7.16667,2.5 6.5,2.5C 5.83333,2.16667 5.16667,1.83333 4.5,1.5C 4.16667,0.833333 3.83333,0.166667 3.5,-0.5 Z" />
    </g>
    <g>
        <path style="opacity:1" fill="#80b115"
            d="M 9.5,0.5 C 9.5,0.166667 9.5,-0.166667 9.5,-0.5C 10.5,-0.5 11.5,-0.5 12.5,-0.5C 12.5,-0.166667 12.5,0.166667 12.5,0.5C 11.6618,0.841711 11.3284,1.50838 11.5,2.5C 11.1667,2.5 10.8333,2.5 10.5,2.5C 10.6716,1.50838 10.3382,0.841711 9.5,0.5 Z" />
    </g>
    <g>
        <path style="opacity:1" fill="#7fb302"
            d="M 14.5,0.5 C 14.5,0.166667 14.5,-0.166667 14.5,-0.5C 15.1667,-0.5 15.8333,-0.5 16.5,-0.5C 16.5912,1.69772 15.9245,2.03105 14.5,0.5 Z" />
    </g>
    <g>
        <path style="opacity:1" fill="#80bb00"
            d="M 17.5,-0.5 C 18.5,-0.5 19.5,-0.5 20.5,-0.5C 19.8902,0.391047 19.5569,1.39105 19.5,2.5C 19.5,3.16667 19.5,3.83333 19.5,4.5C 19.1667,4.5 18.8333,4.5 18.5,4.5C 18.5,3.83333 18.5,3.16667 18.5,2.5C 17.8902,1.60895 17.5569,0.608953 17.5,-0.5 Z" />
    </g>
    <g>
        <path style="opacity:1" fill="#8ab919"
            d="M 0.5,1.5 C 0.841711,0.661754 1.50838,0.32842 2.5,0.5C 2.5,1.16667 2.5,1.83333 2.5,2.5C 1.83333,2.16667 1.16667,1.83333 0.5,1.5 Z" />
    </g>
    <g>
        <path style="opacity:1" fill="#7ebc02"
            d="M 12.5,-0.5 C 13.1667,-0.5 13.8333,-0.5 14.5,-0.5C 14.5,-0.166667 14.5,0.166667 14.5,0.5C 13.8333,0.5 13.5,0.833333 13.5,1.5C 12.8333,1.5 12.5,1.16667 12.5,0.5C 12.5,0.166667 12.5,-0.166667 12.5,-0.5 Z" />
    </g>
    <g>
        <path style="opacity:1" fill="#89bc13"
            d="M 20.5,-0.5 C 21.1667,-0.5 21.8333,-0.5 22.5,-0.5C 22.5,0.166667 22.5,0.833333 22.5,1.5C 21.609,2.10978 20.609,2.44312 19.5,2.5C 19.5569,1.39105 19.8902,0.391047 20.5,-0.5 Z" />
    </g>
    <g>
        <path style="opacity:1" fill="#82bb02"
            d="M 22.5,-0.5 C 23.1667,-0.5 23.8333,-0.5 24.5,-0.5C 24.5,0.166667 24.5,0.833333 24.5,1.5C 23.8333,1.5 23.1667,1.5 22.5,1.5C 22.5,0.833333 22.5,0.166667 22.5,-0.5 Z" />
    </g>
    <g>
        <path style="opacity:1" fill="#88bd0a"
            d="M 2.5,-0.5 C 2.83333,-0.5 3.16667,-0.5 3.5,-0.5C 3.83333,0.166667 4.16667,0.833333 4.5,1.5C 4.15829,2.33825 3.49162,2.67158 2.5,2.5C 2.5,1.83333 2.5,1.16667 2.5,0.5C 2.5,0.166667 2.5,-0.166667 2.5,-0.5 Z" />
    </g>
    <g>
        <path style="opacity:1" fill="#8fbc1a"
            d="M 9.5,0.5 C 10.3382,0.841711 10.6716,1.50838 10.5,2.5C 9.83333,2.5 9.16667,2.5 8.5,2.5C 8.83333,1.83333 9.16667,1.16667 9.5,0.5 Z" />
    </g>
    <g>
        <path style="opacity:1" fill="#8cbb02"
            d="M 12.5,0.5 C 12.5,1.16667 12.8333,1.5 13.5,1.5C 13.1583,2.33825 12.4916,2.67158 11.5,2.5C 11.3284,1.50838 11.6618,0.841711 12.5,0.5 Z" />
    </g>
    <g>
        <path style="opacity:1" fill="#81ba17"
            d="M 16.5,-0.5 C 16.8333,-0.5 17.1667,-0.5 17.5,-0.5C 17.5569,0.608953 17.8902,1.60895 18.5,2.5C 17.2223,2.78219 16.2223,3.44886 15.5,4.5C 15.1667,4.5 14.8333,4.5 14.5,4.5C 14.5,3.16667 14.5,1.83333 14.5,0.5C 15.9245,2.03105 16.5912,1.69772 16.5,-0.5 Z" />
    </g>
    <g>
        <path style="opacity:1" fill="#89bd00"
            d="M 22.5,2.5 C 22.5,2.16667 22.5,1.83333 22.5,1.5C 23.1667,1.5 23.8333,1.5 24.5,1.5C 24.5,2.16667 24.5,2.83333 24.5,3.5C 23.8333,3.16667 23.1667,2.83333 22.5,2.5 Z" />
    </g>
    <g>
        <path style="opacity:1" fill="#83be0c"
            d="M 0.5,1.5 C 1.16667,1.83333 1.83333,2.16667 2.5,2.5C 2.5,2.83333 2.5,3.16667 2.5,3.5C 1.83333,3.5 1.16667,3.5 0.5,3.5C 0.5,2.83333 0.5,2.16667 0.5,1.5 Z" />
    </g>
    <g>
        <path style="opacity:1" fill="#85ba17"
            d="M 4.5,1.5 C 5.16667,1.83333 5.83333,2.16667 6.5,2.5C 4.96895,3.92454 5.30228,4.59121 7.5,4.5C 7.16667,5.16667 6.83333,5.83333 6.5,6.5C 5.5041,6.41423 4.67076,6.74756 4,7.5C 3.53566,6.90558 3.36899,6.23891 3.5,5.5C 3.67158,4.50838 3.33825,3.84171 2.5,3.5C 2.5,3.16667 2.5,2.83333 2.5,2.5C 3.49162,2.67158 4.15829,2.33825 4.5,1.5 Z" />
    </g>
    <g>
        <path style="opacity:1" fill="#7ebe00"
            d="M 6.5,2.5 C 7.16667,2.5 7.83333,2.5 8.5,2.5C 8.5,2.83333 8.5,3.16667 8.5,3.5C 7.83333,3.5 7.5,3.83333 7.5,4.5C 5.30228,4.59121 4.96895,3.92454 6.5,2.5 Z" />
    </g>
    <g>
        <path style="opacity:1" fill="#7aab17"
            d="M 14.5,0.5 C 14.5,1.83333 14.5,3.16667 14.5,4.5C 14.1667,4.5 13.8333,4.5 13.5,4.5C 12.794,3.44272 12.4607,3.77606 12.5,5.5C 11.8333,5.5 11.5,5.16667 11.5,4.5C 11.5,3.83333 11.5,3.16667 11.5,2.5C 12.4916,2.67158 13.1583,2.33825 13.5,1.5C 13.5,0.833333 13.8333,0.5 14.5,0.5 Z" />
    </g>
    <g>
        <path style="opacity:1" fill="#85bd04"
            d="M 22.5,1.5 C 22.5,1.83333 22.5,2.16667 22.5,2.5C 22.5,2.83333 22.5,3.16667 22.5,3.5C 21.391,3.55688 20.391,3.89022 19.5,4.5C 19.5,3.83333 19.5,3.16667 19.5,2.5C 20.609,2.44312 21.609,2.10978 22.5,1.5 Z" />
    </g>
    <g>
        <path style="opacity:1" fill="#7fb222"
            d="M 7.5,4.5 C 7.5,3.83333 7.83333,3.5 8.5,3.5C 9.33825,3.84171 9.67158,4.50838 9.5,5.5C 9.16667,5.5 8.83333,5.5 8.5,5.5C 8.5,4.83333 8.16667,4.5 7.5,4.5 Z" />
    </g>
    <g>
        <path style="opacity:1" fill="#85bc06"
            d="M 18.5,2.5 C 18.5,3.16667 18.5,3.83333 18.5,4.5C 18.5,4.83333 18.5,5.16667 18.5,5.5C 18.1667,5.5 17.8333,5.5 17.5,5.5C 16.8333,5.83333 16.1667,6.16667 15.5,6.5C 15.5,5.83333 15.5,5.16667 15.5,4.5C 16.2223,3.44886 17.2223,2.78219 18.5,2.5 Z" />
    </g>
    <g>
        <path style="opacity:1" fill="#87bc15"
            d="M 22.5,3.5 C 22.5,3.83333 22.5,4.16667 22.5,4.5C 21.609,5.10978 20.609,5.44312 19.5,5.5C 19.1667,5.5 18.8333,5.5 18.5,5.5C 18.5,5.16667 18.5,4.83333 18.5,4.5C 18.8333,4.5 19.1667,4.5 19.5,4.5C 20.391,3.89022 21.391,3.55688 22.5,3.5 Z" />
    </g>
    <g>
        <path style="opacity:1" fill="#80b01d"
            d="M 22.5,2.5 C 23.1667,2.83333 23.8333,3.16667 24.5,3.5C 24.5,3.83333 24.5,4.16667 24.5,4.5C 23.8333,4.5 23.1667,4.5 22.5,4.5C 22.5,4.16667 22.5,3.83333 22.5,3.5C 22.5,3.16667 22.5,2.83333 22.5,2.5 Z" />
    </g>
    <g>
        <path style="opacity:1" fill="#76ba00"
            d="M 2.5,3.5 C 3.33825,3.84171 3.67158,4.50838 3.5,5.5C 3.16667,5.5 2.83333,5.5 2.5,5.5C 1.49367,5.06233 1.49367,4.39567 2.5,3.5 Z" />
    </g>
    <g>
        <path style="opacity:1" fill="#80b806"
            d="M 8.5,3.5 C 8.5,3.16667 8.5,2.83333 8.5,2.5C 9.16667,2.5 9.83333,2.5 10.5,2.5C 10.8333,2.5 11.1667,2.5 11.5,2.5C 11.5,3.16667 11.5,3.83333 11.5,4.5C 10.8333,4.83333 10.1667,5.16667 9.5,5.5C 9.67158,4.50838 9.33825,3.84171 8.5,3.5 Z" />
    </g>
    <g>
        <path style="opacity:1" fill="#79bd00"
            d="M 13.5,4.5 C 13.8333,4.5 14.1667,4.5 14.5,4.5C 14.8333,4.5 15.1667,4.5 15.5,4.5C 15.5,5.16667 15.5,5.83333 15.5,6.5C 15.1667,6.5 14.8333,6.5 14.5,6.5C 14.1667,5.83333 13.8333,5.16667 13.5,4.5 Z" />
    </g>
    <g>
        <path style="opacity:1" fill="#86b233"
            d="M 22.5,5.5 C 22.5,5.16667 22.5,4.83333 22.5,4.5C 23.1667,4.5 23.8333,4.5 24.5,4.5C 24.5,5.16667 24.5,5.83333 24.5,6.5C 23.8333,6.16667 23.1667,5.83333 22.5,5.5 Z" />
    </g>
    <g>
        <path style="opacity:1" fill="#85ba16"
            d="M -0.5,3.5 C -0.166667,3.5 0.166667,3.5 0.5,3.5C 1.16667,3.5 1.83333,3.5 2.5,3.5C 1.49367,4.39567 1.49367,5.06233 2.5,5.5C 2.5,6.16667 2.5,6.83333 2.5,7.5C 1.56552,8.56764 1.23219,9.90097 1.5,11.5C 1.16667,11.5 0.833333,11.5 0.5,11.5C 0.5,10.8333 0.166667,10.5 -0.5,10.5C -0.5,8.16667 -0.5,5.83333 -0.5,3.5 Z" />
    </g>
    <g>
        <path style="opacity:1" fill="#87b915"
            d="M 11.5,4.5 C 11.5,5.16667 11.8333,5.5 12.5,5.5C 12.5,6.16667 12.5,6.83333 12.5,7.5C 10.8212,7.71481 9.82124,7.04814 9.5,5.5C 10.1667,5.16667 10.8333,4.83333 11.5,4.5 Z" />
    </g>
    <g>
        <path style="opacity:1" fill="#84be02"
            d="M 13.5,4.5 C 13.8333,5.16667 14.1667,5.83333 14.5,6.5C 13.8333,6.83333 13.1667,7.16667 12.5,7.5C 12.5,6.83333 12.5,6.16667 12.5,5.5C 12.4607,3.77606 12.794,3.44272 13.5,4.5 Z" />
    </g>
    <g>
        <path style="opacity:1" fill="#7bb700"
            d="M 22.5,4.5 C 22.5,4.83333 22.5,5.16667 22.5,5.5C 22.1583,6.33825 21.4916,6.67158 20.5,6.5C 19.8333,6.5 19.5,6.16667 19.5,5.5C 20.609,5.44312 21.609,5.10978 22.5,4.5 Z" />
    </g>
    <g>
        <path style="opacity:1" fill="#87b905"
            d="M 7.5,4.5 C 8.16667,4.5 8.5,4.83333 8.5,5.5C 8.5,5.83333 8.5,6.16667 8.5,6.5C 7.60433,7.50633 6.93767,7.50633 6.5,6.5C 6.83333,5.83333 7.16667,5.16667 7.5,4.5 Z" />
    </g>
    <g>
        <path style="opacity:1" fill="#86ba29"
            d="M 17.5,5.5 C 17.5,6.16667 17.5,6.83333 17.5,7.5C 16.8333,7.5 16.1667,7.5 15.5,7.5C 15.5,7.16667 15.5,6.83333 15.5,6.5C 16.1667,6.16667 16.8333,5.83333 17.5,5.5 Z" />
    </g>
    <g>
        <path style="opacity:1" fill="#81bb06"
            d="M 17.5,5.5 C 17.8333,5.5 18.1667,5.5 18.5,5.5C 18.8333,5.5 19.1667,5.5 19.5,5.5C 19.5,6.16667 19.8333,6.5 20.5,6.5C 20.1667,7.16667 19.8333,7.83333 19.5,8.5C 19.1667,8.5 18.8333,8.5 18.5,8.5C 18.5,7.83333 18.1667,7.5 17.5,7.5C 17.5,6.83333 17.5,6.16667 17.5,5.5 Z" />
    </g>
    <g>
        <path style="opacity:1" fill="#83ba08"
            d="M 22.5,5.5 C 23.1667,5.83333 23.8333,6.16667 24.5,6.5C 24.5,7.5 24.5,8.5 24.5,9.5C 24.1667,9.5 23.8333,9.5 23.5,9.5C 23.1667,9.5 22.8333,9.5 22.5,9.5C 22.631,8.76109 22.4643,8.09442 22,7.5C 21.5831,8.75598 20.7498,9.42265 19.5,9.5C 19.5,9.16667 19.5,8.83333 19.5,8.5C 19.8333,7.83333 20.1667,7.16667 20.5,6.5C 21.4916,6.67158 22.1583,6.33825 22.5,5.5 Z" />
    </g>
    <g>
        <path style="opacity:1" fill="#87b726"
            d="M 2.5,5.5 C 2.83333,5.5 3.16667,5.5 3.5,5.5C 3.36899,6.23891 3.53566,6.90558 4,7.5C 4.67076,6.74756 5.5041,6.41423 6.5,6.5C 6.93767,7.50633 7.60433,7.50633 8.5,6.5C 8.5,7.16667 8.5,7.83333 8.5,8.5C 8.5,9.16667 8.5,9.83333 8.5,10.5C 7.83333,10.5 7.5,10.1667 7.5,9.5C 7.15829,8.66175 6.49162,8.32842 5.5,8.5C 4.5,8.5 3.5,8.5 2.5,8.5C 2.5,8.16667 2.5,7.83333 2.5,7.5C 2.5,6.83333 2.5,6.16667 2.5,5.5 Z" />
    </g>
    <g>
        <path style="opacity:1" fill="#7dba0c"
            d="M 8.5,5.5 C 8.83333,5.5 9.16667,5.5 9.5,5.5C 9.82124,7.04814 10.8212,7.71481 12.5,7.5C 12.5,7.83333 12.5,8.16667 12.5,8.5C 11.8333,8.5 11.1667,8.5 10.5,8.5C 9.83333,8.5 9.16667,8.5 8.5,8.5C 8.5,7.83333 8.5,7.16667 8.5,6.5C 8.5,6.16667 8.5,5.83333 8.5,5.5 Z" />
    </g>
    <g>
        <path style="opacity:1" fill="#86b911"
            d="M 14.5,6.5 C 14.8333,6.5 15.1667,6.5 15.5,6.5C 15.5,6.83333 15.5,7.16667 15.5,7.5C 14.609,8.10978 13.609,8.44312 12.5,8.5C 12.5,8.16667 12.5,7.83333 12.5,7.5C 13.1667,7.16667 13.8333,6.83333 14.5,6.5 Z" />
    </g>
    <g>
        <path style="opacity:1" fill="#78ba04"
            d="M 5.5,8.5 C 6.49162,8.32842 7.15829,8.66175 7.5,9.5C 6.83333,9.5 6.5,9.83333 6.5,10.5C 5.5,10.5 4.5,10.5 3.5,10.5C 4.16667,9.83333 4.83333,9.16667 5.5,8.5 Z" />
    </g>
    <g>
        <path style="opacity:1" fill="#84bd03"
            d="M 8.5,8.5 C 9.16667,8.5 9.83333,8.5 10.5,8.5C 10.5,8.83333 10.5,9.16667 10.5,9.5C 10.1667,10.1667 9.83333,10.8333 9.5,11.5C 9.16667,11.5 8.83333,11.5 8.5,11.5C 8.5,11.1667 8.5,10.8333 8.5,10.5C 8.5,9.83333 8.5,9.16667 8.5,8.5 Z" />
    </g>
    <g>
        <path style="opacity:1" fill="#86b830"
            d="M 10.5,9.5 C 10.5,9.16667 10.5,8.83333 10.5,8.5C 11.1667,8.5 11.8333,8.5 12.5,8.5C 12.5,9.16667 12.8333,9.5 13.5,9.5C 13.5,9.83333 13.5,10.1667 13.5,10.5C 12.5987,11.2905 11.9321,12.2905 11.5,13.5C 11.5,13.8333 11.5,14.1667 11.5,14.5C 10.8333,14.5 10.5,14.1667 10.5,13.5C 10.5,12.8333 10.5,12.1667 10.5,11.5C 11.8333,10.8333 11.8333,10.1667 10.5,9.5 Z" />
    </g>
    <g>
        <path style="opacity:1" fill="#7ebc06"
            d="M 15.5,7.5 C 15.5,8.16667 15.5,8.83333 15.5,9.5C 14.8333,9.5 14.1667,9.5 13.5,9.5C 12.8333,9.5 12.5,9.16667 12.5,8.5C 13.609,8.44312 14.609,8.10978 15.5,7.5 Z" />
    </g>
    <g>
        <path style="opacity:1" fill="#85b90c"
            d="M 15.5,7.5 C 16.1667,7.5 16.8333,7.5 17.5,7.5C 18.1667,7.5 18.5,7.83333 18.5,8.5C 17.8333,8.5 17.5,8.83333 17.5,9.5C 16.8333,9.5 16.1667,9.5 15.5,9.5C 15.5,8.83333 15.5,8.16667 15.5,7.5 Z" />
    </g>
    <g>
        <path style="opacity:1" fill="#87be01"
            d="M 2.5,8.5 C 3.5,8.5 4.5,8.5 5.5,8.5C 4.83333,9.16667 4.16667,9.83333 3.5,10.5C 3.5,10.8333 3.5,11.1667 3.5,11.5C 2.59603,10.791 2.26269,9.79105 2.5,8.5 Z" />
    </g>
    <g>
        <path style="opacity:1" fill="#82b922"
            d="M 18.5,8.5 C 18.8333,8.5 19.1667,8.5 19.5,8.5C 19.5,8.83333 19.5,9.16667 19.5,9.5C 19.5,9.83333 19.5,10.1667 19.5,10.5C 18.8333,10.8333 18.1667,11.1667 17.5,11.5C 17.5,10.8333 17.5,10.1667 17.5,9.5C 17.5,8.83333 17.8333,8.5 18.5,8.5 Z" />
    </g>
    <g>
        <path style="opacity:1" fill="#87ba21"
            d="M 22.5,9.5 C 22.1583,10.3382 21.4916,10.6716 20.5,10.5C 20.1667,10.5 19.8333,10.5 19.5,10.5C 19.5,10.1667 19.5,9.83333 19.5,9.5C 20.7498,9.42265 21.5831,8.75598 22,7.5C 22.4643,8.09442 22.631,8.76109 22.5,9.5 Z" />
    </g>
    <g>
        <path style="opacity:1" fill="#84ba13"
            d="M 3.5,10.5 C 4.5,10.5 5.5,10.5 6.5,10.5C 6.67158,11.4916 6.33825,12.1583 5.5,12.5C 5.16667,12.5 4.83333,12.5 4.5,12.5C 3.83333,12.5 3.5,12.1667 3.5,11.5C 3.5,11.1667 3.5,10.8333 3.5,10.5 Z" />
    </g>
    <g>
        <path style="opacity:1" fill="#81ba05"
            d="M 7.5,9.5 C 7.5,10.1667 7.83333,10.5 8.5,10.5C 8.5,10.8333 8.5,11.1667 8.5,11.5C 7.66175,11.8417 7.32842,12.5084 7.5,13.5C 6.83333,13.5 6.16667,13.5 5.5,13.5C 5.5,13.1667 5.5,12.8333 5.5,12.5C 6.33825,12.1583 6.67158,11.4916 6.5,10.5C 6.5,9.83333 6.83333,9.5 7.5,9.5 Z" />
    </g>
    <g>
        <path style="opacity:1" fill="#89bc0d"
            d="M 10.5,9.5 C 11.8333,10.1667 11.8333,10.8333 10.5,11.5C 10.1667,11.5 9.83333,11.5 9.5,11.5C 9.83333,10.8333 10.1667,10.1667 10.5,9.5 Z" />
    </g>
    <g>
        <path style="opacity:1" fill="#80b802"
            d="M 13.5,9.5 C 14.1667,9.5 14.8333,9.5 15.5,9.5C 15.5,10.5 15.5,11.5 15.5,12.5C 14.1667,12.5 13.5,11.8333 13.5,10.5C 13.5,10.1667 13.5,9.83333 13.5,9.5 Z" />
    </g>
    <g>
        <path style="opacity:1" fill="#80ba04"
            d="M 15.5,9.5 C 16.1667,9.5 16.8333,9.5 17.5,9.5C 17.5,10.1667 17.5,10.8333 17.5,11.5C 16.8333,12.1667 16.1667,12.8333 15.5,13.5C 15.5,13.1667 15.5,12.8333 15.5,12.5C 15.5,11.5 15.5,10.5 15.5,9.5 Z" />
    </g>
    <g>
        <path style="opacity:1" fill="#7fb80c"
            d="M 22.5,9.5 C 22.8333,9.5 23.1667,9.5 23.5,9.5C 23.5,10.1667 23.5,10.8333 23.5,11.5C 22.8333,11.8333 22.1667,12.1667 21.5,12.5C 20.8333,12.5 20.1667,12.5 19.5,12.5C 19.8333,11.8333 20.1667,11.1667 20.5,10.5C 21.4916,10.6716 22.1583,10.3382 22.5,9.5 Z" />
    </g>
    <g>
        <path style="opacity:1" fill="#7db51b"
            d="M 2.5,7.5 C 2.5,7.83333 2.5,8.16667 2.5,8.5C 2.26269,9.79105 2.59603,10.791 3.5,11.5C 3.5,12.1667 3.83333,12.5 4.5,12.5C 4.5,13.1667 4.16667,13.5 3.5,13.5C 2.5,13.1667 1.83333,12.5 1.5,11.5C 1.23219,9.90097 1.56552,8.56764 2.5,7.5 Z" />
    </g>
    <g>
        <path style="opacity:1" fill="#7cbd05"
            d="M 8.5,11.5 C 8.83333,11.5 9.16667,11.5 9.5,11.5C 9.83333,11.5 10.1667,11.5 10.5,11.5C 10.5,12.1667 10.5,12.8333 10.5,13.5C 10.1667,13.5 9.83333,13.5 9.5,13.5C 9.16667,12.8333 8.83333,12.1667 8.5,11.5 Z" />
    </g>
    <g>
        <path style="opacity:1" fill="#79b807"
            d="M 19.5,10.5 C 19.8333,10.5 20.1667,10.5 20.5,10.5C 20.1667,11.1667 19.8333,11.8333 19.5,12.5C 18.4937,12.9377 18.4937,13.6043 19.5,14.5C 19.5,14.8333 19.5,15.1667 19.5,15.5C 18.5084,15.6716 17.8417,15.3382 17.5,14.5C 17.5,13.5 17.5,12.5 17.5,11.5C 18.1667,11.1667 18.8333,10.8333 19.5,10.5 Z" />
    </g>
    <g>
        <path style="opacity:1" fill="#7dbc06"
            d="M 13.5,10.5 C 13.5,11.8333 14.1667,12.5 15.5,12.5C 15.5,12.8333 15.5,13.1667 15.5,13.5C 14.8333,13.5 14.5,13.8333 14.5,14.5C 14.5,14.8333 14.5,15.1667 14.5,15.5C 14.1667,15.5 13.8333,15.5 13.5,15.5C 13.5,15.1667 13.5,14.8333 13.5,14.5C 13.1583,13.6618 12.4916,13.3284 11.5,13.5C 11.9321,12.2905 12.5987,11.2905 13.5,10.5 Z" />
    </g>
    <g>
        <path style="opacity:1" fill="#76ba00"
            d="M 19.5,12.5 C 20.1667,12.5 20.8333,12.5 21.5,12.5C 21.5,12.8333 21.5,13.1667 21.5,13.5C 21.5,13.8333 21.5,14.1667 21.5,14.5C 20.8333,14.5 20.1667,14.5 19.5,14.5C 18.4937,13.6043 18.4937,12.9377 19.5,12.5 Z" />
    </g>
    <g>
        <path style="opacity:1" fill="#89bb02"
            d="M 23.5,11.5 C 23.5,12.8333 22.8333,13.5 21.5,13.5C 21.5,13.1667 21.5,12.8333 21.5,12.5C 22.1667,12.1667 22.8333,11.8333 23.5,11.5 Z" />
    </g>
    <g>
        <path style="opacity:1" fill="#84b728"
            d="M -0.5,10.5 C 0.166667,10.5 0.5,10.8333 0.5,11.5C 0.527092,13.1993 1.19376,14.5326 2.5,15.5C 1.50838,15.3284 0.841711,15.6618 0.5,16.5C 0.166667,16.5 -0.166667,16.5 -0.5,16.5C -0.5,14.5 -0.5,12.5 -0.5,10.5 Z" />
    </g>
    <g>
        <path style="opacity:1" fill="#7eb902"
            d="M 4.5,12.5 C 4.83333,12.5 5.16667,12.5 5.5,12.5C 5.5,12.8333 5.5,13.1667 5.5,13.5C 5.5,14.1667 5.16667,14.5 4.5,14.5C 3.83333,14.5 3.5,14.1667 3.5,13.5C 4.16667,13.5 4.5,13.1667 4.5,12.5 Z" />
    </g>
    <g>
        <path style="opacity:1" fill="#7faf24"
            d="M 8.5,11.5 C 8.83333,12.1667 9.16667,12.8333 9.5,13.5C 9.5,14.1667 9.16667,14.5 8.5,14.5C 8.5,13.8333 8.16667,13.5 7.5,13.5C 7.32842,12.5084 7.66175,11.8417 8.5,11.5 Z" />
    </g>
    <g>
        <path style="opacity:1" fill="#86ba2b"
            d="M 17.5,11.5 C 17.5,12.5 17.5,13.5 17.5,14.5C 16.5,14.5 15.5,14.5 14.5,14.5C 14.5,13.8333 14.8333,13.5 15.5,13.5C 16.1667,12.8333 16.8333,12.1667 17.5,11.5 Z" />
    </g>
    <g>
        <path style="opacity:1" fill="#88ba1a"
            d="M 23.5,9.5 C 23.8333,9.5 24.1667,9.5 24.5,9.5C 24.5,11.8333 24.5,14.1667 24.5,16.5C 24.1667,16.5 23.8333,16.5 23.5,16.5C 23.1667,15.5 22.5,14.8333 21.5,14.5C 21.5,14.1667 21.5,13.8333 21.5,13.5C 22.8333,13.5 23.5,12.8333 23.5,11.5C 23.5,10.8333 23.5,10.1667 23.5,9.5 Z" />
    </g>
    <g>
        <path style="opacity:1" fill="#83ba09"
            d="M 0.5,11.5 C 0.833333,11.5 1.16667,11.5 1.5,11.5C 1.83333,12.5 2.5,13.1667 3.5,13.5C 3.5,14.1667 3.83333,14.5 4.5,14.5C 4.5,14.8333 4.5,15.1667 4.5,15.5C 3.83333,15.5 3.5,15.8333 3.5,16.5C 2.83333,16.5 2.5,16.1667 2.5,15.5C 1.19376,14.5326 0.527092,13.1993 0.5,11.5 Z" />
    </g>
    <g>
        <path style="opacity:1" fill="#87b81b"
            d="M 5.5,13.5 C 6.16667,13.5 6.83333,13.5 7.5,13.5C 7.5,14.8333 7.5,16.1667 7.5,17.5C 6.83333,17.5 6.5,17.1667 6.5,16.5C 6.15829,15.6618 5.49162,15.3284 4.5,15.5C 4.5,15.1667 4.5,14.8333 4.5,14.5C 5.16667,14.5 5.5,14.1667 5.5,13.5 Z" />
    </g>
    <g>
        <path style="opacity:1" fill="#84b61e"
            d="M 9.5,13.5 C 9.83333,13.5 10.1667,13.5 10.5,13.5C 10.5,14.1667 10.8333,14.5 11.5,14.5C 11.5,14.8333 11.5,15.1667 11.5,15.5C 11.0825,16.2216 10.4158,16.7216 9.5,17C 10.4158,17.2784 11.0825,17.7784 11.5,18.5C 10.5,18.5 9.5,18.5 8.5,18.5C 8.5,17.1667 8.5,15.8333 8.5,14.5C 9.16667,14.5 9.5,14.1667 9.5,13.5 Z" />
    </g>
    <g>
        <path style="opacity:1" fill="#86bc11"
            d="M 11.5,13.5 C 12.4916,13.3284 13.1583,13.6618 13.5,14.5C 12.8333,14.5 12.5,14.8333 12.5,15.5C 12.1667,15.5 11.8333,15.5 11.5,15.5C 11.5,15.1667 11.5,14.8333 11.5,14.5C 11.5,14.1667 11.5,13.8333 11.5,13.5 Z" />
    </g>
    <g>
        <path style="opacity:1" fill="#7fbd00"
            d="M 13.5,14.5 C 13.5,14.8333 13.5,15.1667 13.5,15.5C 14.5063,16.3957 14.5063,17.0623 13.5,17.5C 12.6618,17.1583 12.3284,16.4916 12.5,15.5C 12.5,14.8333 12.8333,14.5 13.5,14.5 Z" />
    </g>
    <g>
        <path style="opacity:1" fill="#7dba0e"
            d="M 2.5,15.5 C 2.5,16.1667 2.83333,16.5 3.5,16.5C 3.5,17.1667 3.5,17.8333 3.5,18.5C 3.16667,18.5 2.83333,18.5 2.5,18.5C 2.16667,18.5 1.83333,18.5 1.5,18.5C 0.661754,18.1583 0.32842,17.4916 0.5,16.5C 0.841711,15.6618 1.50838,15.3284 2.5,15.5 Z" />
    </g>
    <g>
        <path style="opacity:1" fill="#85bd07"
            d="M 14.5,15.5 C 14.5,15.1667 14.5,14.8333 14.5,14.5C 15.5,14.5 16.5,14.5 17.5,14.5C 17.8417,15.3382 18.5084,15.6716 19.5,15.5C 19.5,15.8333 19.5,16.1667 19.5,16.5C 18.8333,16.5 18.1667,16.5 17.5,16.5C 17.1667,16.5 16.8333,16.5 16.5,16.5C 16.1583,15.6618 15.4916,15.3284 14.5,15.5 Z" />
    </g>
    <g>
        <path style="opacity:1" fill="#90bc23"
            d="M 19.5,14.5 C 20.1667,14.5 20.8333,14.5 21.5,14.5C 21.1667,15.1667 20.8333,15.8333 20.5,16.5C 20.1667,16.5 19.8333,16.5 19.5,16.5C 19.5,16.1667 19.5,15.8333 19.5,15.5C 19.5,15.1667 19.5,14.8333 19.5,14.5 Z" />
    </g>
    <g>
        <path style="opacity:1" fill="#7fbc06"
            d="M 21.5,14.5 C 22.5,14.8333 23.1667,15.5 23.5,16.5C 22.8333,16.5 22.5,16.8333 22.5,17.5C 22.1667,17.5 21.8333,17.5 21.5,17.5C 21.5,16.8333 21.1667,16.5 20.5,16.5C 20.8333,15.8333 21.1667,15.1667 21.5,14.5 Z" />
    </g>
    <g>
        <path style="opacity:1" fill="#80bc03"
            d="M 4.5,15.5 C 5.49162,15.3284 6.15829,15.6618 6.5,16.5C 5.76109,16.369 5.09442,16.5357 4.5,17C 5.38053,17.7083 6.0472,18.5416 6.5,19.5C 6.5,20.1667 6.5,20.8333 6.5,21.5C 5.72813,20.3065 4.72813,19.3065 3.5,18.5C 3.5,17.8333 3.5,17.1667 3.5,16.5C 3.5,15.8333 3.83333,15.5 4.5,15.5 Z" />
    </g>
    <g>
        <path style="opacity:1" fill="#78b502"
            d="M 6.5,16.5 C 6.5,17.1667 6.83333,17.5 7.5,17.5C 7.67158,18.4916 7.33825,19.1583 6.5,19.5C 6.0472,18.5416 5.38053,17.7083 4.5,17C 5.09442,16.5357 5.76109,16.369 6.5,16.5 Z" />
    </g>
    <g>
        <path style="opacity:1" fill="#85bc09"
            d="M 11.5,15.5 C 11.8333,15.5 12.1667,15.5 12.5,15.5C 12.3284,16.4916 12.6618,17.1583 13.5,17.5C 13.5,17.8333 13.5,18.1667 13.5,18.5C 12.8333,18.5 12.1667,18.5 11.5,18.5C 11.0825,17.7784 10.4158,17.2784 9.5,17C 10.4158,16.7216 11.0825,16.2216 11.5,15.5 Z" />
    </g>
    <g>
        <path style="opacity:1" fill="#7abb00"
            d="M 16.5,16.5 C 16.8333,16.5 17.1667,16.5 17.5,16.5C 17.5,16.8333 17.5,17.1667 17.5,17.5C 16.8333,18.1667 16.1667,18.8333 15.5,19.5C 15.5,19.1667 15.5,18.8333 15.5,18.5C 15.3284,17.5084 15.6618,16.8417 16.5,16.5 Z" />
    </g>
    <g>
        <path style="opacity:1" fill="#8ab919"
            d="M 17.5,17.5 C 17.5,17.1667 17.5,16.8333 17.5,16.5C 18.1667,16.5 18.8333,16.5 19.5,16.5C 19.5,17.1667 19.5,17.8333 19.5,18.5C 18.8333,18.1667 18.1667,17.8333 17.5,17.5 Z" />
    </g>
    <g>
        <path style="opacity:1" fill="#87bd0d"
            d="M 19.5,16.5 C 19.8333,16.5 20.1667,16.5 20.5,16.5C 21.1667,16.5 21.5,16.8333 21.5,17.5C 21.1583,18.3382 20.4916,18.6716 19.5,18.5C 19.5,17.8333 19.5,17.1667 19.5,16.5 Z" />
    </g>
    <g>
        <path style="opacity:1" fill="#82b600"
            d="M -0.5,16.5 C -0.166667,16.5 0.166667,16.5 0.5,16.5C 0.32842,17.4916 0.661754,18.1583 1.5,18.5C 1.15829,19.3382 0.491622,19.6716 -0.5,19.5C -0.5,18.5 -0.5,17.5 -0.5,16.5 Z" />
    </g>
    <g>
        <path style="opacity:1" fill="#82b710"
            d="M 13.5,15.5 C 13.8333,15.5 14.1667,15.5 14.5,15.5C 15.4916,15.3284 16.1583,15.6618 16.5,16.5C 15.6618,16.8417 15.3284,17.5084 15.5,18.5C 14.8333,18.5 14.1667,18.5 13.5,18.5C 13.5,18.1667 13.5,17.8333 13.5,17.5C 14.5063,17.0623 14.5063,16.3957 13.5,15.5 Z" />
    </g>
    <g>
        <path style="opacity:1" fill="#7db902"
            d="M 23.5,16.5 C 23.8333,16.5 24.1667,16.5 24.5,16.5C 24.5,16.8333 24.5,17.1667 24.5,17.5C 23.8333,18.1667 23.1667,18.8333 22.5,19.5C 22.5,18.8333 22.5,18.1667 22.5,17.5C 22.5,16.8333 22.8333,16.5 23.5,16.5 Z" />
    </g>
    <g>
        <path style="opacity:1" fill="#85ba0a"
            d="M 2.5,18.5 C 2.83333,18.5 3.16667,18.5 3.5,18.5C 4.72813,19.3065 5.72813,20.3065 6.5,21.5C 6.5,21.8333 6.5,22.1667 6.5,22.5C 5.83333,22.5 5.16667,22.5 4.5,22.5C 4.63101,21.7611 4.46434,21.0944 4,20.5C 3.02278,21.7736 2.18944,21.7736 1.5,20.5C 2.33825,20.1583 2.67158,19.4916 2.5,18.5 Z" />
    </g>
    <g>
        <path style="opacity:1" fill="#80b500"
            d="M 11.5,18.5 C 12.1667,18.5 12.8333,18.5 13.5,18.5C 13.1667,19.1667 12.8333,19.8333 12.5,20.5C 11.8333,20.5 11.5,20.1667 11.5,19.5C 11.5,19.1667 11.5,18.8333 11.5,18.5 Z" />
    </g>
    <g>
        <path style="opacity:1" fill="#83be0c"
            d="M 17.5,17.5 C 18.1667,17.8333 18.8333,18.1667 19.5,18.5C 19.5,18.8333 19.5,19.1667 19.5,19.5C 18.1667,19.5 17.5,18.8333 17.5,17.5 Z" />
    </g>
    <g>
        <path style="opacity:1" fill="#84b81b"
            d="M 21.5,17.5 C 21.8333,17.5 22.1667,17.5 22.5,17.5C 22.5,18.1667 22.5,18.8333 22.5,19.5C 22.427,21.0269 23.0937,22.0269 24.5,22.5C 24.5,23.1667 24.5,23.8333 24.5,24.5C 23.5,24.5 22.5,24.5 21.5,24.5C 21.9227,22.2188 21.256,20.5521 19.5,19.5C 19.5,19.1667 19.5,18.8333 19.5,18.5C 20.4916,18.6716 21.1583,18.3382 21.5,17.5 Z" />
    </g>
    <g>
        <path style="opacity:1" fill="#7fb616"
            d="M 1.5,18.5 C 1.83333,18.5 2.16667,18.5 2.5,18.5C 2.67158,19.4916 2.33825,20.1583 1.5,20.5C 0.565525,21.5676 0.232191,22.901 0.5,24.5C 0.166667,24.5 -0.166667,24.5 -0.5,24.5C -0.5,22.8333 -0.5,21.1667 -0.5,19.5C 0.491622,19.6716 1.15829,19.3382 1.5,18.5 Z" />
    </g>
    <g>
        <path style="opacity:1" fill="#7bbb02"
            d="M 8.5,18.5 C 9.5,18.5 10.5,18.5 11.5,18.5C 11.5,18.8333 11.5,19.1667 11.5,19.5C 10.7611,19.369 10.0944,19.5357 9.5,20C 10.3805,20.7083 11.0472,21.5416 11.5,22.5C 10.8333,22.5 10.1667,22.5 9.5,22.5C 9.16667,22.5 8.83333,22.5 8.5,22.5C 8.5,21.1667 8.5,19.8333 8.5,18.5 Z" />
    </g>
    <g>
        <path style="opacity:1" fill="#84b921"
            d="M 11.5,19.5 C 11.5,20.1667 11.8333,20.5 12.5,20.5C 12.5,21.1667 12.5,21.8333 12.5,22.5C 12.1667,22.5 11.8333,22.5 11.5,22.5C 11.0472,21.5416 10.3805,20.7083 9.5,20C 10.0944,19.5357 10.7611,19.369 11.5,19.5 Z" />
    </g>
    <g>
        <path style="opacity:1" fill="#80bc0d"
            d="M 13.5,18.5 C 14.1667,18.5 14.8333,18.5 15.5,18.5C 15.5,18.8333 15.5,19.1667 15.5,19.5C 14.8333,19.8333 14.1667,20.1667 13.5,20.5C 13.1667,20.5 12.8333,20.5 12.5,20.5C 12.8333,19.8333 13.1667,19.1667 13.5,18.5 Z" />
    </g>
    <g>
        <path style="opacity:1" fill="#8aba15"
            d="M 17.5,17.5 C 17.5,18.8333 18.1667,19.5 19.5,19.5C 19.5,19.8333 19.5,20.1667 19.5,20.5C 18.1667,20.5 16.8333,20.5 15.5,20.5C 15.5,20.1667 15.5,19.8333 15.5,19.5C 16.1667,18.8333 16.8333,18.1667 17.5,17.5 Z" />
    </g>
    <g>
        <path style="opacity:1" fill="#86be06"
            d="M 7.5,13.5 C 8.16667,13.5 8.5,13.8333 8.5,14.5C 8.5,15.8333 8.5,17.1667 8.5,18.5C 8.5,19.8333 8.5,21.1667 8.5,22.5C 8.16667,22.5 7.83333,22.5 7.5,22.5C 7.5,21.8333 7.16667,21.5 6.5,21.5C 6.5,20.8333 6.5,20.1667 6.5,19.5C 7.33825,19.1583 7.67158,18.4916 7.5,17.5C 7.5,16.1667 7.5,14.8333 7.5,13.5 Z" />
    </g>
    <g>
        <path style="opacity:1" fill="#8ab632"
            d="M 15.5,19.5 C 15.5,19.8333 15.5,20.1667 15.5,20.5C 15.5,20.8333 15.5,21.1667 15.5,21.5C 14.5084,21.6716 13.8417,21.3382 13.5,20.5C 14.1667,20.1667 14.8333,19.8333 15.5,19.5 Z" />
    </g>
    <g>
        <path style="opacity:1" fill="#7fb903"
            d="M 19.5,19.5 C 21.256,20.5521 21.9227,22.2188 21.5,24.5C 21.1667,24.5 20.8333,24.5 20.5,24.5C 20.6716,23.5084 20.3382,22.8417 19.5,22.5C 19.5,21.8333 19.5,21.1667 19.5,20.5C 19.5,20.1667 19.5,19.8333 19.5,19.5 Z" />
    </g>
    <g>
        <path style="opacity:1" fill="#7cb11c"
            d="M 1.5,20.5 C 2.18944,21.7736 3.02278,21.7736 4,20.5C 4.46434,21.0944 4.63101,21.7611 4.5,22.5C 4.5,23.1667 4.5,23.8333 4.5,24.5C 4.16667,24.5 3.83333,24.5 3.5,24.5C 2.83333,21.8333 2.16667,21.8333 1.5,24.5C 1.16667,24.5 0.833333,24.5 0.5,24.5C 0.232191,22.901 0.565525,21.5676 1.5,20.5 Z" />
    </g>
    <g>
        <path style="opacity:1" fill="#84ba04"
            d="M 12.5,20.5 C 12.8333,20.5 13.1667,20.5 13.5,20.5C 13.8417,21.3382 14.5084,21.6716 15.5,21.5C 15.1667,22.1667 14.8333,22.8333 14.5,23.5C 13.8333,23.1667 13.1667,22.8333 12.5,22.5C 12.5,21.8333 12.5,21.1667 12.5,20.5 Z" />
    </g>
    <g>
        <path style="opacity:1" fill="#86bc0f"
            d="M 15.5,21.5 C 15.5,21.1667 15.5,20.8333 15.5,20.5C 16.8333,20.5 18.1667,20.5 19.5,20.5C 19.5,21.1667 19.5,21.8333 19.5,22.5C 18.1667,22.5 17.5,23.1667 17.5,24.5C 16.8333,24.5 16.1667,24.5 15.5,24.5C 16.625,23.3478 16.625,22.3478 15.5,21.5 Z" />
    </g>
    <g>
        <path style="opacity:1" fill="#88bd0d"
            d="M 24.5,17.5 C 24.5,19.1667 24.5,20.8333 24.5,22.5C 23.0937,22.0269 22.427,21.0269 22.5,19.5C 23.1667,18.8333 23.8333,18.1667 24.5,17.5 Z" />
    </g>
    <g>
        <path style="opacity:1" fill="#79bd0a"
            d="M 4.5,22.5 C 5.16667,22.5 5.83333,22.5 6.5,22.5C 6.5,23.1667 6.5,23.8333 6.5,24.5C 5.83333,24.5 5.16667,24.5 4.5,24.5C 4.5,23.8333 4.5,23.1667 4.5,22.5 Z" />
    </g>
    <g>
        <path style="opacity:1" fill="#87b814"
            d="M 6.5,21.5 C 7.16667,21.5 7.5,21.8333 7.5,22.5C 7.83333,23.1667 8.16667,23.8333 8.5,24.5C 7.83333,24.5 7.16667,24.5 6.5,24.5C 6.5,23.8333 6.5,23.1667 6.5,22.5C 6.5,22.1667 6.5,21.8333 6.5,21.5 Z" />
    </g>
    <g>
        <path style="opacity:1" fill="#7eb80e"
            d="M 7.5,22.5 C 7.83333,22.5 8.16667,22.5 8.5,22.5C 8.83333,22.5 9.16667,22.5 9.5,22.5C 9.83333,23.1667 10.1667,23.8333 10.5,24.5C 9.83333,24.5 9.16667,24.5 8.5,24.5C 8.16667,23.8333 7.83333,23.1667 7.5,22.5 Z" />
    </g>
    <g>
        <path style="opacity:1" fill="#78ad13"
            d="M 15.5,21.5 C 16.625,22.3478 16.625,23.3478 15.5,24.5C 15.1667,24.5 14.8333,24.5 14.5,24.5C 14.5,24.1667 14.5,23.8333 14.5,23.5C 14.8333,22.8333 15.1667,22.1667 15.5,21.5 Z" />
    </g>
    <g>
        <path style="opacity:1" fill="#7dbc05"
            d="M 3.5,24.5 C 2.83333,24.5 2.16667,24.5 1.5,24.5C 2.16667,21.8333 2.83333,21.8333 3.5,24.5 Z" />
    </g>
    <g>
        <path style="opacity:1" fill="#81bd0d"
            d="M 9.5,22.5 C 10.1667,22.5 10.8333,22.5 11.5,22.5C 11.8333,22.5 12.1667,22.5 12.5,22.5C 12.5,23.1667 12.5,23.8333 12.5,24.5C 11.8333,24.5 11.1667,24.5 10.5,24.5C 10.1667,23.8333 9.83333,23.1667 9.5,22.5 Z" />
    </g>
    <g>
        <path style="opacity:1" fill="#78b700"
            d="M 12.5,22.5 C 13.1667,22.8333 13.8333,23.1667 14.5,23.5C 14.5,23.8333 14.5,24.1667 14.5,24.5C 13.8333,24.5 13.1667,24.5 12.5,24.5C 12.5,23.8333 12.5,23.1667 12.5,22.5 Z" />
    </g>
    <g>
        <path style="opacity:1" fill="#82b920"
            d="M 19.5,22.5 C 20.3382,22.8417 20.6716,23.5084 20.5,24.5C 19.5,24.5 18.5,24.5 17.5,24.5C 17.5,23.1667 18.1667,22.5 19.5,22.5 Z" />
    </g>
</svg>