<?xml version="1.0" standalone="no"?>
<svg xmlns:xlink="http://www.w3.org/1999/xlink" id="svg-0" xmlns="http://www.w3.org/2000/svg" width="100" height="100"><rect x="0" y="0" width="20" height="20"/><rect x="0" y="20" width="20" height="20"/><rect x="0" y="40" width="20" height="20" style="fill: rgb(232, 170, 66);"/><rect x="0" y="60" width="20" height="20" style="fill: rgb(232, 170, 66);"/><rect x="0" y="80" width="20" height="20" style="fill: rgb(255, 229, 105);"/><rect x="20" y="0" width="20" height="20"/><rect x="20" y="20" width="20" height="20" style="fill: rgb(232, 170, 66);"/><rect x="20" y="40" width="20" height="20" style="fill: rgb(232, 170, 66);"/><rect x="20" y="60" width="20" height="20" style="fill: rgb(255, 229, 105);"/><rect x="20" y="80" width="20" height="20" style="fill: rgb(255, 229, 105);"/><rect x="40" y="0" width="20" height="20" style="fill: rgb(232, 170, 66);"/><rect x="40" y="20" width="20" height="20" style="fill: rgb(232, 170, 66);"/><rect x="40" y="40" width="20" height="20" style="fill: rgb(255, 229, 105);"/><rect x="40" y="60" width="20" height="20" style="fill: rgb(255, 229, 105);"/><rect x="40" y="80" width="20" height="20" style="fill: rgb(255, 229, 105);"/><rect x="60" y="0" width="20" height="20"/><rect x="60" y="20" width="20" height="20" style="fill: rgb(232, 170, 66);"/><rect x="60" y="40" width="20" height="20" style="fill: rgb(232, 170, 66);"/><rect x="60" y="60" width="20" height="20" style="fill: rgb(255, 229, 105);"/><rect x="60" y="80" width="20" height="20" style="fill: rgb(255, 229, 105);"/><rect x="80" y="0" width="20" height="20"/><rect x="80" y="20" width="20" height="20"/><rect x="80" y="40" width="20" height="20" style="fill: rgb(232, 170, 66);"/><rect x="80" y="60" width="20" height="20" style="fill: rgb(232, 170, 66);"/><rect x="80" y="80" width="20" height="20" style="fill: rgb(255, 229, 105);"/></svg>